<svg width="308" height="79" viewBox="0 0 308 79" fill="none" xmlns="http://www.w3.org/2000/svg">
<rect x="40" y="29" width="21" height="8" rx="4" fill="black"/>
<path d="M0 19C0 16.7909 1.79086 15 4 15H59C61.2091 15 63 16.7909 63 19V19C63 21.2091 61.2091 23 59 23H4C1.79086 23 0 21.2091 0 19V19Z" fill="black"/>
<rect x="25" width="36" height="8" rx="4" fill="black"/>
<rect x="25" y="25" width="10" height="54" rx="5" fill="black"/>
<circle cx="86" cy="19" r="4" fill="black"/>
<path d="M54 4C79.3333 4 79.3333 33 54 33" stroke="black" stroke-width="8"/>
<path d="M74.5049 79C78.3424 79 80.2436 74.3417 77.5019 71.6565L47.4838 42.2574C46.6609 41.4514 45.5549 41 44.403 41H44.0545C41.8153 41 40 42.8153 40 45.0545V45.0545C40 46.1407 40.4358 47.1814 41.2098 47.9435L71.4996 77.7688C72.3009 78.5578 73.3803 79 74.5049 79V79Z" fill="black"/>
<path d="M101.352 56.238C100.899 56.238 100.547 56.1133 100.298 55.864C100.071 55.592 99.958 55.2293 99.958 54.776V33.458C99.958 32.982 100.083 32.6307 100.332 32.404C100.581 32.1547 100.933 32.03 101.386 32.03H109.444C112.005 32.03 113.977 32.6307 115.36 33.832C116.743 35.0333 117.434 36.7447 117.434 38.966C117.434 40.3713 117.117 41.5953 116.482 42.638C115.87 43.658 114.963 44.44 113.762 44.984C112.561 45.5053 111.121 45.766 109.444 45.766L109.784 45.324H110.464C111.348 45.324 112.119 45.5507 112.776 46.004C113.433 46.4573 114.034 47.1827 114.578 48.18L117.842 54.266C118.023 54.5833 118.103 54.9007 118.08 55.218C118.08 55.5127 117.978 55.762 117.774 55.966C117.57 56.1473 117.275 56.238 116.89 56.238C116.505 56.238 116.187 56.1473 115.938 55.966C115.689 55.7847 115.473 55.524 115.292 55.184L111.586 48.316C111.065 47.3413 110.464 46.6953 109.784 46.378C109.104 46.038 108.209 45.868 107.098 45.868H102.746V54.776C102.746 55.2293 102.633 55.592 102.406 55.864C102.179 56.1133 101.828 56.238 101.352 56.238ZM102.746 43.658H109.036C110.895 43.658 112.3 43.2727 113.252 42.502C114.204 41.7087 114.68 40.53 114.68 38.966C114.68 37.4473 114.204 36.3027 113.252 35.532C112.3 34.7387 110.895 34.342 109.036 34.342H102.746V43.658ZM129.409 56.306C127.664 56.306 126.156 55.966 124.887 55.286C123.64 54.5833 122.666 53.5973 121.963 52.328C121.283 51.0587 120.943 49.54 120.943 47.772C120.943 46.0493 121.283 44.5533 121.963 43.284C122.643 41.992 123.572 40.9833 124.751 40.258C125.952 39.5327 127.335 39.17 128.899 39.17C130.01 39.17 131.007 39.3627 131.891 39.748C132.775 40.1107 133.523 40.6433 134.135 41.346C134.77 42.0487 135.246 42.8987 135.563 43.896C135.903 44.8933 136.073 46.0153 136.073 47.262C136.073 47.6247 135.971 47.8967 135.767 48.078C135.563 48.2367 135.268 48.316 134.883 48.316H123.051V46.514H134.237L133.693 46.956C133.693 45.732 133.512 44.7007 133.149 43.862C132.786 43.0007 132.254 42.3433 131.551 41.89C130.871 41.4367 130.01 41.21 128.967 41.21C127.811 41.21 126.825 41.482 126.009 42.026C125.216 42.5473 124.615 43.284 124.207 44.236C123.799 45.1653 123.595 46.2533 123.595 47.5V47.704C123.595 49.7893 124.094 51.376 125.091 52.464C126.111 53.552 127.55 54.096 129.409 54.096C130.18 54.096 130.939 53.994 131.687 53.79C132.458 53.586 133.206 53.246 133.931 52.77C134.248 52.566 134.532 52.4753 134.781 52.498C135.053 52.498 135.268 52.5773 135.427 52.736C135.586 52.872 135.688 53.0533 135.733 53.28C135.801 53.484 135.778 53.7107 135.665 53.96C135.574 54.2093 135.382 54.4247 135.087 54.606C134.339 55.15 133.455 55.5693 132.435 55.864C131.415 56.1587 130.406 56.306 129.409 56.306ZM142.303 56.238C141.872 56.238 141.532 56.1133 141.283 55.864C141.056 55.6147 140.943 55.2633 140.943 54.81V41.618H138.767C138.404 41.618 138.109 41.5273 137.883 41.346C137.679 41.142 137.577 40.87 137.577 40.53C137.577 40.19 137.679 39.9293 137.883 39.748C138.109 39.5667 138.404 39.476 138.767 39.476H141.691L140.943 40.19V38.898C140.943 36.7447 141.464 35.1013 142.507 33.968C143.572 32.8347 145.125 32.1773 147.165 31.996L148.151 31.894C148.468 31.8713 148.717 31.928 148.899 32.064C149.103 32.2 149.227 32.37 149.273 32.574C149.341 32.778 149.352 32.9933 149.307 33.22C149.261 33.424 149.159 33.6053 149.001 33.764C148.842 33.9227 148.649 34.0133 148.423 34.036L147.641 34.104C146.258 34.2173 145.249 34.6367 144.615 35.362C144.003 36.0873 143.697 37.1527 143.697 38.558V39.986L143.289 39.476H147.369C147.754 39.476 148.049 39.5667 148.253 39.748C148.457 39.9293 148.559 40.19 148.559 40.53C148.559 40.87 148.457 41.142 148.253 41.346C148.049 41.5273 147.754 41.618 147.369 41.618H143.697V54.81C143.697 55.762 143.232 56.238 142.303 56.238ZM157.784 56.306C156.175 56.306 154.781 55.9547 153.602 55.252C152.423 54.5493 151.505 53.5633 150.848 52.294C150.213 51.002 149.896 49.4833 149.896 47.738C149.896 46.4233 150.077 45.2447 150.44 44.202C150.803 43.1367 151.335 42.23 152.038 41.482C152.741 40.734 153.568 40.1673 154.52 39.782C155.495 39.374 156.583 39.17 157.784 39.17C159.393 39.17 160.787 39.5213 161.966 40.224C163.145 40.9267 164.051 41.924 164.686 43.216C165.343 44.4853 165.672 45.9927 165.672 47.738C165.672 49.0527 165.491 50.2313 165.128 51.274C164.765 52.3167 164.233 53.2233 163.53 53.994C162.827 54.742 161.989 55.32 161.014 55.728C160.062 56.1133 158.985 56.306 157.784 56.306ZM157.784 54.096C158.804 54.096 159.699 53.8467 160.47 53.348C161.241 52.8493 161.83 52.124 162.238 51.172C162.669 50.22 162.884 49.0753 162.884 47.738C162.884 45.6753 162.419 44.1 161.49 43.012C160.583 41.924 159.348 41.38 157.784 41.38C156.741 41.38 155.835 41.6293 155.064 42.128C154.316 42.604 153.727 43.318 153.296 44.27C152.888 45.1993 152.684 46.3553 152.684 47.738C152.684 49.778 153.149 51.3533 154.078 52.464C155.007 53.552 156.243 54.096 157.784 54.096ZM171.203 56.238C170.749 56.238 170.398 56.1133 170.149 55.864C169.922 55.6147 169.809 55.2633 169.809 54.81V40.632C169.809 40.1787 169.922 39.8387 170.149 39.612C170.375 39.3627 170.704 39.238 171.135 39.238C171.565 39.238 171.894 39.3627 172.121 39.612C172.37 39.8387 172.495 40.1787 172.495 40.632V43.386H172.155C172.517 42.0487 173.209 41.0173 174.229 40.292C175.249 39.5667 176.507 39.1813 178.003 39.136C178.343 39.1133 178.615 39.1927 178.819 39.374C179.023 39.5327 179.136 39.816 179.159 40.224C179.181 40.6093 179.091 40.9153 178.887 41.142C178.683 41.3687 178.365 41.5047 177.935 41.55L177.391 41.618C175.849 41.754 174.659 42.2527 173.821 43.114C173.005 43.9527 172.597 45.1087 172.597 46.582V54.81C172.597 55.2633 172.472 55.6147 172.223 55.864C171.996 56.1133 171.656 56.238 171.203 56.238ZM183.422 56.238C182.969 56.238 182.629 56.1133 182.402 55.864C182.175 55.6147 182.062 55.2633 182.062 54.81V40.632C182.062 40.1787 182.175 39.8387 182.402 39.612C182.629 39.3627 182.957 39.238 183.388 39.238C183.819 39.238 184.147 39.3627 184.374 39.612C184.623 39.8387 184.748 40.1787 184.748 40.632V43.624L184.374 43.148C184.805 41.8787 185.496 40.904 186.448 40.224C187.423 39.5213 188.579 39.17 189.916 39.17C191.321 39.17 192.455 39.51 193.316 40.19C194.2 40.8473 194.789 41.8787 195.084 43.284H194.574C194.982 42.0147 195.707 41.0173 196.75 40.292C197.815 39.544 199.051 39.17 200.456 39.17C201.703 39.17 202.723 39.408 203.516 39.884C204.332 40.36 204.944 41.0853 205.352 42.06C205.76 43.012 205.964 44.2247 205.964 45.698V54.81C205.964 55.2633 205.839 55.6147 205.59 55.864C205.363 56.1133 205.023 56.238 204.57 56.238C204.139 56.238 203.799 56.1133 203.55 55.864C203.323 55.6147 203.21 55.2633 203.21 54.81V45.834C203.21 44.3153 202.949 43.2047 202.428 42.502C201.907 41.7767 201.023 41.414 199.776 41.414C198.416 41.414 197.339 41.89 196.546 42.842C195.775 43.7713 195.39 45.0407 195.39 46.65V54.81C195.39 55.2633 195.265 55.6147 195.016 55.864C194.789 56.1133 194.449 56.238 193.996 56.238C193.565 56.238 193.225 56.1133 192.976 55.864C192.749 55.6147 192.636 55.2633 192.636 54.81V45.834C192.636 44.3153 192.364 43.2047 191.82 42.502C191.299 41.7767 190.426 41.414 189.202 41.414C187.842 41.414 186.765 41.89 185.972 42.842C185.201 43.7713 184.816 45.0407 184.816 46.65V54.81C184.816 55.762 184.351 56.238 183.422 56.238ZM227.529 56.238C227.098 56.238 226.758 56.1133 226.509 55.864C226.26 55.592 226.135 55.2293 226.135 54.776V34.444H218.485C218.077 34.444 217.76 34.3307 217.533 34.104C217.306 33.8773 217.193 33.5827 217.193 33.22C217.193 32.8347 217.306 32.54 217.533 32.336C217.76 32.132 218.077 32.03 218.485 32.03H236.607C237.015 32.03 237.332 32.132 237.559 32.336C237.786 32.54 237.899 32.8347 237.899 33.22C237.899 33.6053 237.786 33.9113 237.559 34.138C237.332 34.342 237.015 34.444 236.607 34.444H228.957V54.776C228.957 55.2293 228.832 55.592 228.583 55.864C228.356 56.1133 228.005 56.238 227.529 56.238ZM245.188 56.306C243.443 56.306 241.936 55.966 240.666 55.286C239.42 54.5833 238.445 53.5973 237.742 52.328C237.062 51.0587 236.722 49.54 236.722 47.772C236.722 46.0493 237.062 44.5533 237.742 43.284C238.422 41.992 239.352 40.9833 240.53 40.258C241.732 39.5327 243.114 39.17 244.678 39.17C245.789 39.17 246.786 39.3627 247.67 39.748C248.554 40.1107 249.302 40.6433 249.914 41.346C250.549 42.0487 251.025 42.8987 251.342 43.896C251.682 44.8933 251.852 46.0153 251.852 47.262C251.852 47.6247 251.75 47.8967 251.546 48.078C251.342 48.2367 251.048 48.316 250.662 48.316H238.83V46.514H250.016L249.472 46.956C249.472 45.732 249.291 44.7007 248.928 43.862C248.566 43.0007 248.033 42.3433 247.33 41.89C246.65 41.4367 245.789 41.21 244.746 41.21C243.59 41.21 242.604 41.482 241.788 42.026C240.995 42.5473 240.394 43.284 239.986 44.236C239.578 45.1653 239.374 46.2533 239.374 47.5V47.704C239.374 49.7893 239.873 51.376 240.87 52.464C241.89 53.552 243.33 54.096 245.188 54.096C245.959 54.096 246.718 53.994 247.466 53.79C248.237 53.586 248.985 53.246 249.71 52.77C250.028 52.566 250.311 52.4753 250.56 52.498C250.832 52.498 251.048 52.5773 251.206 52.736C251.365 52.872 251.467 53.0533 251.512 53.28C251.58 53.484 251.558 53.7107 251.444 53.96C251.354 54.2093 251.161 54.4247 250.866 54.606C250.118 55.15 249.234 55.5693 248.214 55.864C247.194 56.1587 246.186 56.306 245.188 56.306ZM262.842 56.306C261.187 56.306 259.759 55.9433 258.558 55.218C257.357 54.4927 256.427 53.484 255.77 52.192C255.135 50.8773 254.818 49.3587 254.818 47.636C254.818 46.3213 254.999 45.1427 255.362 44.1C255.725 43.0573 256.257 42.1733 256.96 41.448C257.663 40.7 258.501 40.1333 259.476 39.748C260.473 39.3627 261.595 39.17 262.842 39.17C263.658 39.17 264.508 39.2947 265.392 39.544C266.276 39.7933 267.081 40.224 267.806 40.836C268.033 40.9947 268.18 41.1873 268.248 41.414C268.316 41.6407 268.316 41.8673 268.248 42.094C268.18 42.298 268.067 42.4793 267.908 42.638C267.749 42.774 267.545 42.8533 267.296 42.876C267.069 42.8987 266.831 42.8193 266.582 42.638C265.993 42.1847 265.392 41.8673 264.78 41.686C264.168 41.5047 263.579 41.414 263.012 41.414C262.128 41.414 261.357 41.5613 260.7 41.856C260.043 42.128 259.487 42.5247 259.034 43.046C258.581 43.5673 258.229 44.2133 257.98 44.984C257.753 45.7547 257.64 46.65 257.64 47.67C257.64 49.642 258.105 51.206 259.034 52.362C259.963 53.4953 261.289 54.062 263.012 54.062C263.579 54.062 264.157 53.9713 264.746 53.79C265.358 53.6087 265.97 53.2913 266.582 52.838C266.831 52.6567 267.069 52.5773 267.296 52.6C267.523 52.6227 267.715 52.7133 267.874 52.872C268.033 53.008 268.135 53.1893 268.18 53.416C268.248 53.6427 268.248 53.8693 268.18 54.096C268.112 54.3 267.965 54.4813 267.738 54.64C267.013 55.2293 266.219 55.66 265.358 55.932C264.497 56.1813 263.658 56.306 262.842 56.306ZM272.936 56.238C272.483 56.238 272.143 56.1133 271.916 55.864C271.69 55.6147 271.576 55.2633 271.576 54.81V33.186C271.576 32.7327 271.69 32.3927 271.916 32.166C272.143 31.9167 272.483 31.792 272.936 31.792C273.367 31.792 273.707 31.9167 273.956 32.166C274.206 32.3927 274.33 32.7327 274.33 33.186V43.148H273.888C274.364 41.8333 275.135 40.8473 276.2 40.19C277.288 39.51 278.535 39.17 279.94 39.17C281.255 39.17 282.343 39.408 283.204 39.884C284.088 40.36 284.746 41.0853 285.176 42.06C285.607 43.012 285.822 44.2247 285.822 45.698V54.81C285.822 55.2633 285.698 55.6147 285.448 55.864C285.222 56.1133 284.893 56.238 284.462 56.238C284.009 56.238 283.658 56.1133 283.408 55.864C283.182 55.6147 283.068 55.2633 283.068 54.81V45.868C283.068 44.3267 282.762 43.2047 282.15 42.502C281.561 41.7767 280.609 41.414 279.294 41.414C277.776 41.414 276.563 41.89 275.656 42.842C274.772 43.7713 274.33 45.018 274.33 46.582V54.81C274.33 55.762 273.866 56.238 272.936 56.238Z" fill="black"/>
</svg>
